<svg width="18" height="17" viewBox="0 0 18 17" fill="none" xmlns="http://www.w3.org/2000/svg">
<path d="M10.59 0.469898C10.1164 0.16319 9.56423 0 9 0C8.43577 0 7.88359 0.16319 7.41 0.469898L0 5.24965L3 7.18465V14.5601L3.21975 14.7799C3.29025 14.8496 4.98525 16.4996 9 16.4996C13.0148 16.4996 14.7098 14.8496 14.7803 14.7799L15 14.5601V7.18465L16.5 6.21715V14.2496H18V5.24965L10.59 0.469898ZM13.5 13.8867C12.1446 14.6983 10.5774 15.0859 9 14.9996C7.42263 15.0861 5.85547 14.6987 4.5 13.8874V8.15215L7.41 10.0271C7.88332 10.3346 8.43561 10.4982 9 10.4982C9.56439 10.4982 10.1167 10.3346 10.59 10.0271L13.5 8.15215V13.8867ZM9.777 8.76865C9.54577 8.91906 9.27585 8.99912 9 8.99912C8.72415 8.99912 8.45423 8.91906 8.223 8.76865L2.7675 5.24965L8.223 1.73065C8.45423 1.58024 8.72415 1.50018 9 1.50018C9.27585 1.50018 9.54577 1.58024 9.777 1.73065L15.2325 5.24965L9.777 8.76865Z" fill="#7F685F"/>
</svg>
