<svg xmlns="http://www.w3.org/2000/svg" viewBox="0 0 279.15 86.69"><defs><style>.cls-1{fill:#f58220;}.cls-2,.cls-3{fill:#231f20;}.cls-3{fill-rule:evenodd;}</style></defs><g id="Layer_2" data-name="Layer 2"><g id="Layer_1-2" data-name="Layer 1"><rect class="cls-1" x="1.38" y="1.78" width="83.54" height="83.51"/><path class="cls-2" d="M86.32,86.69H0V.39H86.32V86.67h0ZM2.78,83.9H83.53V3.18H2.78V83.91h0Z"/><polygon class="cls-3" points="22.17 70.78 56.04 70.78 56.04 64.56 30.1 64.56 30.1 13.29 22.17 13.29 22.17 70.78 22.17 70.78"/><rect class="cls-1" x="97.8" y="1.59" width="83.54" height="83.51"/><path class="cls-2" d="M182.73,86.48H96.41V.2h86.32V86.48ZM99.19,83.7h80.75V3H99.19V83.7Z"/><path class="cls-3" d="M154.62,22.65a14.74,14.74,0,0,0-3.87-5.11A17.88,17.88,0,0,0,143.8,14a36.15,36.15,0,0,0-10.07-1.24q-4.72,0-8.47.33c-2.48.21-4.68.47-6.58.78V70.7h7.84v-23a18.41,18.41,0,0,0,3,.41c1.06.07,2.19.1,3.36.1a36.18,36.18,0,0,0,7.28-.71,25.91,25.91,0,0,0,6.28-2.11,19.16,19.16,0,0,0,5-3.49,14.79,14.79,0,0,0,3.49-5.31,19.49,19.49,0,0,0,1.18-7,16.56,16.56,0,0,0-1.44-6.92h0Zm-8.25,14a11.46,11.46,0,0,1-5.22,4.15A21,21,0,0,1,133,42.2c-1.3,0-2.51-.05-3.59-.13a17.52,17.52,0,0,1-2.9-.45V19.26a19.62,19.62,0,0,1,2.91-.43c1.25-.11,2.75-.17,4.47-.17a20.7,20.7,0,0,1,7.51,1.24,10.66,10.66,0,0,1,5,3.75A10.68,10.68,0,0,1,148.2,30a11.68,11.68,0,0,1-1.85,6.61h0Z"/><rect class="cls-1" x="194.22" y="1.39" width="83.54" height="83.51"/><path class="cls-2" d="M279.15,86.29H192.83V0h86.32V86.28Zm-83.53-2.78h80.75V2.78H195.62V83.51Z"/><path class="cls-3" d="M215,13.09V47a35.2,35.2,0,0,0,1.66,11.41,19.65,19.65,0,0,0,4.59,7.6,17.67,17.67,0,0,0,6.9,4.25,26.42,26.42,0,0,0,8.65,1.33,28.17,28.17,0,0,0,9.14-1.39,19.16,19.16,0,0,0,7.28-4.4A20,20,0,0,0,258,58a34,34,0,0,0,1.74-11.34V13.08h-7.93V47.21A25.4,25.4,0,0,1,250,57.56a12.66,12.66,0,0,1-5.13,6,15.11,15.11,0,0,1-7.79,1.94,13.61,13.61,0,0,1-7.26-1.89,12.87,12.87,0,0,1-5-5.95,25.81,25.81,0,0,1-1.86-10.42V13.08H215Z"/></g></g></svg>